<?xml version="1.0" standalone="no"?>
<!DOCTYPE svg PUBLIC "-//W3C//DTD SVG 20010904//EN"
 "http://www.w3.org/TR/2001/REC-SVG-20010904/DTD/svg10.dtd">
<svg version="1.0" xmlns="http://www.w3.org/2000/svg"
 width="1000.000000pt" height="1000.000000pt" viewBox="0 0 1000.000000 1000.000000"
 preserveAspectRatio="xMidYMid meet">
<metadata>
Created by potrace 1.11, written by Peter Selinger 2001-2013
</metadata>
<g transform="translate(0.000000,1000.000000) scale(0.100000,-0.100000)"
fill="#000000" stroke="none">
<path d="M1599 9879 c-137 -146 -178 -193 -278 -314 -412 -502 -742 -1083
-969 -1705 -49 -135 -118 -349 -138 -429 -2 -9 -11 -41 -19 -71 -41 -144 -101
-439 -130 -630 -21 -143 -23 -157 -31 -235 -12 -119 -13 -127 -21 -240 -10
-138 -10 -678 0 -805 8 -103 10 -118 33 -320 3 -25 10 -79 16 -120 6 -41 12
-84 13 -95 2 -11 6 -36 10 -55 4 -19 12 -66 20 -105 18 -98 51 -245 75 -340
11 -44 22 -88 25 -98 45 -187 190 -593 298 -837 49 -110 188 -390 237 -475
239 -420 508 -789 814 -1120 129 -139 321 -328 422 -415 234 -202 429 -351
651 -499 83 -56 154 -101 157 -101 3 0 24 -13 48 -29 24 -15 66 -41 93 -56 28
-15 55 -31 60 -35 23 -19 360 -187 485 -242 376 -168 826 -313 1185 -384 11
-2 31 -6 45 -9 35 -7 188 -35 230 -41 19 -3 46 -7 60 -10 14 -2 48 -6 75 -9
28 -3 60 -8 72 -11 12 -2 51 -7 85 -9 35 -3 77 -8 93 -10 188 -26 889 -27
1080 -1 17 2 60 7 97 11 37 3 77 8 89 10 12 3 45 7 73 10 28 2 60 7 71 9 11 2
42 7 69 10 179 24 703 149 826 197 14 5 34 11 45 13 33 7 353 125 465 173 238
102 363 163 633 313 373 206 815 538 1165 875 l72 70 -517 517 -518 517 -65
-61 c-130 -121 -157 -145 -260 -229 -171 -139 -379 -287 -500 -357 -178 -102
-243 -137 -362 -195 -75 -37 -183 -85 -240 -107 -57 -23 -112 -45 -123 -50
-11 -6 -87 -32 -170 -59 -130 -43 -174 -56 -220 -66 -5 -2 -35 -10 -65 -19
-30 -8 -70 -18 -89 -21 -19 -3 -37 -8 -41 -10 -8 -5 -31 -9 -205 -40 -167 -29
-194 -33 -271 -40 -32 -3 -72 -8 -89 -10 -165 -22 -624 -22 -805 -1 -25 3 -65
7 -90 10 -78 8 -165 19 -175 21 -5 1 -28 5 -50 9 -22 4 -74 14 -115 21 -41 8
-86 16 -100 19 -53 9 -340 87 -440 119 -612 199 -1182 539 -1653 987 -89 84
-195 193 -253 260 -21 24 -46 51 -54 60 -8 8 -33 38 -55 65 -22 28 -43 52 -46
55 -14 13 -162 215 -219 299 -276 413 -498 910 -610 1371 -26 104 -67 306 -75
360 -3 25 -10 70 -15 100 -11 70 -24 194 -35 335 -8 99 -8 465 -1 560 10 128
22 248 32 310 3 22 7 51 9 65 6 37 34 202 39 225 3 11 11 52 20 90 82 382 272
875 462 1202 138 237 342 529 459 659 6 6 35 39 65 74 30 35 71 79 90 100 19
20 50 52 67 71 l33 35 -518 517 -518 518 -115 -122z"/>
<path d="M3606 8645 c-218 -56 -244 -368 -38 -463 51 -23 67 -25 236 -28 214
-3 954 -13 1391 -19 531 -7 1088 -15 1395 -20 162 -2 489 -7 725 -10 237 -3
549 -8 695 -10 1398 -21 1337 -22 1393 3 117 52 173 177 138 308 -14 53 -70
117 -127 145 -59 28 64 24 -1384 44 -737 10 -1368 19 -2150 30 -228 4 -527 8
-665 10 -137 2 -468 6 -735 10 -267 4 -562 8 -657 9 -104 1 -189 -2 -217 -9z"/>
<path d="M4264 7352 l255 -254 198 -3 c199 -4 896 -14 1313 -20 124 -2 434 -6
690 -10 256 -4 614 -8 795 -9 323 -1 331 -1 372 21 50 27 106 94 123 147 18
57 8 146 -24 201 -31 52 -92 101 -145 115 -33 8 -247 13 -1121 25 -300 4 -918
13 -1355 20 -143 2 -453 7 -690 10 -236 4 -483 8 -548 9 l-118 1 255 -253z"/>
<path d="M3185 7499 c-122 -16 -205 -60 -252 -130 -25 -38 -28 -52 -28 -123 0
-74 3 -88 39 -158 116 -233 422 -463 762 -572 240 -78 469 -79 592 -4 145 89
152 252 20 445 -49 72 -179 204 -234 239 -16 10 -31 21 -34 24 -7 8 -126 82
-180 112 -201 114 -516 191 -685 167z"/>
<path d="M5099 6539 c-5 -3 103 -118 241 -255 l251 -249 112 -1 c140 -2 824
-12 1302 -20 198 -3 477 -7 620 -9 143 -2 476 -7 740 -11 264 -4 599 -7 745
-8 253 -1 267 0 305 21 86 46 137 129 136 222 0 96 -50 180 -131 221 -66 33
18 30 -1095 45 -231 3 -546 8 -700 10 -254 4 -444 7 -1325 20 -151 2 -464 7
-695 10 -231 4 -437 7 -458 8 -21 1 -43 0 -48 -4z"/>
<path d="M3489 5896 c-2 -2 -33 -7 -69 -10 -344 -29 -705 -214 -791 -404 -29
-62 -34 -103 -20 -159 56 -220 484 -335 923 -248 138 27 150 30 283 83 442
174 553 493 229 652 -108 53 -240 81 -405 85 -80 3 -148 3 -150 1z"/>
<path d="M6403 5226 l257 -254 477 -7 c730 -10 685 -11 736 14 60 29 95 65
125 130 20 44 24 64 20 115 -8 96 -54 163 -141 207 -48 25 -56 26 -627 34
-228 3 -570 8 -759 11 l-344 5 256 -255z"/>
<path d="M4395 4750 c-154 -33 -339 -137 -507 -284 -73 -65 -107 -100 -187
-196 -11 -14 -25 -30 -31 -37 -23 -28 -100 -153 -127 -208 -58 -116 -77 -191
-78 -300 0 -118 19 -166 87 -215 57 -42 108 -53 203 -47 351 24 816 430 971
847 23 64 28 91 28 180 1 84 -3 112 -18 140 -47 88 -107 122 -221 126 -44 2
-98 -1 -120 -6z"/>
<path d="M6667 4408 c-73 -15 -124 -56 -165 -129 -46 -83 -58 -267 -28 -414
39 -186 94 -323 198 -498 32 -54 65 -106 73 -115 83 -104 121 -146 174 -192
350 -309 634 -152 576 319 -10 83 -14 100 -40 193 -61 213 -188 441 -336 601
-69 76 -178 167 -197 167 -6 0 -12 4 -14 8 -5 13 -108 53 -157 61 -25 4 -63 3
-84 -1z"/>
<path d="M7471 4165 l256 -254 439 -7 c241 -4 615 -7 829 -8 l390 -1 40 25
c84 52 126 125 126 219 1 73 -29 139 -83 186 -63 54 -105 63 -290 65 -89 1
-257 3 -373 5 -115 2 -415 6 -665 10 -250 3 -561 8 -690 10 l-234 4 255 -254z"/>
<path d="M5539 4229 c-259 -39 -489 -499 -491 -984 -1 -77 5 -168 11 -202 7
-35 14 -75 17 -90 6 -39 31 -109 60 -168 96 -199 277 -239 436 -96 51 45 128
142 128 160 0 5 4 11 9 13 13 5 77 144 106 232 60 180 81 322 78 541 -1 125
-6 167 -27 250 -61 238 -183 366 -327 344z"/>
</g>
</svg>
