<svg width="1000" height="1000" viewBox="0 0 1000 1000" version="1.1" xmlns="http://www.w3.org/2000/svg" xmlns:xlink="http://www.w3.org/1999/xlink">
<title>Final logo</title>
<desc>Created using Figma</desc>
<g id="Canvas" transform="translate(-2848 -306)">
<clipPath id="clip-0" clip-rule="evenodd">
<path d="M 2848 306L 3848 306L 3848 1306L 2848 1306L 2848 306Z" fill="#FFFFFF"/>
</clipPath>
<g id="Final logo" clip-path="url(#clip-0)">
<g id="noun_59055_cc">
<g id="Vector">
<use xlink:href="#path0_fill" transform="translate(2848 306)" fill="#A7855A"/>
</g>
<g id="Vector">
<use xlink:href="#path1_fill" transform="matrix(0.890999 -0.454002 0.453998 0.891001 3471.91 885.728)"/>
</g>
<g id="Vector">
<use xlink:href="#path2_fill" transform="matrix(-0.453998 0.891001 -0.890999 -0.454002 3305.73 608.75)"/>
</g>
<g id="Vector">
<use xlink:href="#path3_fill" transform="matrix(0.706999 0.707201 -0.707199 0.707002 3288.15 807.59)"/>
</g>
<g id="Vector">
<use xlink:href="#path4_fill" transform="matrix(0.9877 0.156401 -0.156399 0.9877 3367.38 876.529)"/>
</g>
<g id="Vector">
<use xlink:href="#path5_fill" transform="matrix(0.156299 0.9877 -0.9877 0.156301 3264.64 705.291)"/>
</g>
</g>
<mask id="mask0_alpha" mask-type="alpha">
<g id="Rectangle">
<use xlink:href="#path6_fill" transform="matrix(0.70485 -0.709356 0.709356 0.70485 2984 282.164)" fill="#C4C4C4"/>
</g>
</mask>
<g id="Group" mask="url(#mask0_alpha)">
<g id="Line">
<use xlink:href="#path7_stroke" transform="matrix(0.9999 0.0141279 -0.0164443 0.999865 3190.02 490)" fill="#9DB339"/>
</g>
<g id="Line">
<use xlink:href="#path8_stroke" transform="matrix(0.999891 0.014749 -0.0157517 0.999876 3190.02 594.64)" fill="#9DB339"/>
</g>
<g id="Line">
<use xlink:href="#path9_stroke" transform="matrix(0.999891 0.014749 -0.0157517 0.999876 3190.02 699.279)" fill="#9DB339"/>
</g>
<g id="Line">
<use xlink:href="#path8_stroke" transform="matrix(0.999891 0.014749 -0.0157517 0.999876 3190.02 803.919)" fill="#9DB339"/>
</g>
<g id="Line">
<use xlink:href="#path9_stroke" transform="matrix(0.999891 0.014749 -0.0157517 0.999876 3190.02 908.558)" fill="#9DB339"/>
</g>
</g>
</g>
</g>
<defs>
<path id="path0_fill" d="M 896.444 724.883C 725.144 896.184 446.421 896.184 275.12 724.883C 103.82 553.582 103.82 274.857 275.12 103.556L 171.575 0C -57.1918 228.768 -57.1918 599.671 171.575 828.428C 400.343 1057.19 771.244 1057.2 1000 828.428L 896.444 724.883Z"/>
<path id="path1_fill" d="M 41.189 164.757C 63.9371 164.757 82.3781 127.875 82.3781 82.3783C 82.3781 36.882 63.9371 1.52589e-05 41.189 1.52589e-05C 18.441 1.52589e-05 -1.76324e-05 36.882 -1.76324e-05 82.3783C -1.76324e-05 127.875 18.441 164.757 41.189 164.757Z"/>
<path id="path2_fill" d="M 41.1891 164.756C 63.9373 164.756 82.3783 127.874 82.3783 82.3781C 82.3783 36.8819 63.9373 -1.0003e-05 41.1891 -1.0003e-05C 18.441 -1.0003e-05 1.45807e-05 36.8819 1.45807e-05 82.3781C 1.45807e-05 127.874 18.441 164.756 41.1891 164.756Z"/>
<path id="path3_fill" d="M 41.1891 164.756C 63.9372 164.756 82.3782 127.874 82.3782 82.3782C 82.3782 36.882 63.9372 -1.66152e-05 41.1891 -1.66152e-05C 18.441 -1.66152e-05 -1.39025e-05 36.882 -1.39025e-05 82.3782C -1.39025e-05 127.874 18.441 164.756 41.1891 164.756Z"/>
<path id="path4_fill" d="M 41.189 164.757C 63.9371 164.757 82.378 127.875 82.378 82.3783C 82.378 36.882 63.9371 -1.62762e-05 41.189 -1.62762e-05C 18.4409 -1.62762e-05 -2.0006e-05 36.882 -2.0006e-05 82.3783C -2.0006e-05 127.875 18.4409 164.757 41.189 164.757Z"/>
<path id="path5_fill" d="M 41.1892 164.756C 63.9373 164.756 82.3784 127.874 82.3784 82.378C 82.3784 36.8819 63.9373 1.96669e-05 41.1892 1.96669e-05C 18.441 1.96669e-05 3.72995e-06 36.8819 3.72995e-06 82.378C 3.72995e-06 127.874 18.441 164.756 41.1892 164.756Z"/>
<path id="path6_fill" d="M 0 0L 478.129 0L 478.129 1244.78L 0 1244.78L 0 0Z"/>
<path id="path7_stroke" d="M 25 -50C 11.1929 -50 0 -38.8071 0 -25C 0 -11.1929 11.1929 0 25 0L 25 -50ZM 588.033 0C 601.84 0 613.033 -11.1929 613.033 -25C 613.033 -38.8071 601.84 -50 588.033 -50L 588.033 0ZM 25 0L 588.033 0L 588.033 -50L 25 -50L 25 0Z"/>
<path id="path8_stroke" d="M 25 -50C 11.1929 -50 0 -38.8071 0 -25C 0 -11.1929 11.1929 0 25 0L 25 -50ZM 434.773 0C 448.581 0 459.773 -11.1929 459.773 -25C 459.773 -38.8071 448.581 -50 434.773 -50L 434.773 0ZM 25 0L 434.773 0L 434.773 -50L 25 -50L 25 0Z"/>
<path id="path9_stroke" d="M 25 -50C 11.1929 -50 0 -38.8071 0 -25C 0 -11.1929 11.1929 0 25 0L 25 -50ZM 588.031 0C 601.838 0 613.031 -11.1929 613.031 -25C 613.031 -38.8071 601.838 -50 588.031 -50L 588.031 0ZM 25 0L 588.031 0L 588.031 -50L 25 -50L 25 0Z"/>
</defs>
</svg>
